<?xml version="1.0" encoding="utf-8"?>
<!-- Generator: Adobe Illustrator 26.0.1, SVG Export Plug-In . SVG Version: 6.00 Build 0)  -->
<svg version="1.1" id="WEB" xmlns="http://www.w3.org/2000/svg" xmlns:xlink="http://www.w3.org/1999/xlink" x="0px" y="0px"
	 viewBox="0 0 500 500" style="enable-background:new 0 0 500 500;" xml:space="preserve">
<style type="text/css">
	.st0{fill:#1E1E1E;}
</style>
<g id="OBJECTS">
	<g>
		<path class="st0" d="M333.8,130.5c-4.5-9.9-51.1-13.6-83-13.6s-78.5,3.6-83,13.6l-0.4,142.3c0,11.1,49.8,15.1,83.4,15.1
			s83.4-4,83.4-15.1L333.8,130.5z M231.4,120.5c6.3-0.3,12.8-0.4,19.4-0.4c6.6,0,13.1,0.1,19.4,0.4c34.7,1.3,60.4,6,60.4,11.6
			c0,5.6-25.7,10.3-60.5,11.6c-6.3,0.3-12.7,0.4-19.3,0.4c-6.6,0-13.1-0.1-19.3-0.4c-34.7-1.3-60.5-6-60.5-11.6
			C171,126.5,196.7,121.8,231.4,120.5z M331,272.8c0,1.5-4.7,5-22.6,8c-15.4,2.5-35.8,3.9-57.6,3.9c-21.7,0-42.2-1.4-57.5-3.9
			c-17.9-3-22.6-6.5-22.6-8V136.7c11.5,7.7,51.7,10.6,80.2,10.6c28.4,0,68.6-2.9,80.2-10.6V272.8z"/>
		<path class="st0" d="M335,288v22.6c0,8-37.5,14.6-83.7,14.6c-46.2,0-83.7-6.5-83.7-14.6V288c0,3.7,37.5,14,83.7,14
			C297.5,302,335,291.7,335,288z"/>
		<path class="st0" d="M256.2,101.3c-5.1,5.3-14.1,3.2-16.2-3.9c-0.9-3-1.2-6.6-0.2-11.1c3.2-15,15.8-29.8,11.5-50.3
			c0,0,12.6,20.9,13,43C264.4,90,260.3,97,256.2,101.3z"/>
	</g>
</g>
</svg>
